<?xml version="1.0" encoding="utf-8"?>
<!-- Generator: Adobe Illustrator 17.1.0, SVG Export Plug-In . SVG Version: 6.00 Build 0)  -->
<!DOCTYPE svg PUBLIC "-//W3C//DTD SVG 1.1//EN" "http://www.w3.org/Graphics/SVG/1.1/DTD/svg11.dtd">
<svg version="1.1" id="Layer_1" xmlns="http://www.w3.org/2000/svg" xmlns:xlink="http://www.w3.org/1999/xlink" x="0px" y="0px"
	 viewBox="0 0 1091.1 827.1" enable-background="new 0 0 1091.1 827.1" xml:space="preserve">
<g id="graph0" transform="scale(1 1) rotate(0) translate(4 867)">
	<title>G</title>
	<g id="node1">
		<title>n0</title>
		<polygon fill="#F0F8FF" stroke="#000000" points="10.3,-755.8 10.3,-849.8 230.7,-849.8 230.7,-755.8 		"/>
		<text transform="matrix(1 0 0 1 84.3403 -834.6119)" font-family="'Times-Roman'" font-size="14">«JavaScript»</text>
		<text transform="matrix(1 0 0 1 67.8452 -820.6119)" font-family="'Times-Roman'" font-size="14">freewee/freewee.js</text>
		<line fill="none" stroke="#000000" x1="10.3" y1="-813.8" x2="230.7" y2="-813.8"/>
		<text transform="matrix(1 0 0 1 18.319 -798.6119)" font-family="'Times-Roman'" font-size="14">+module.exports : identifier = router</text>
		<line fill="none" stroke="#000000" x1="10.3" y1="-791.8" x2="230.7" y2="-791.8"/>
		<text transform="matrix(1 0 0 1 18.319 -776.6119)" font-family="'Times-Roman'" font-size="14">-isController(req)</text>
		<text transform="matrix(1 0 0 1 18.319 -762.6119)" font-family="'Times-Roman'" font-size="14">-router()</text>
	</g>
	<g id="node21">
		<title>n20</title>
		<polygon fill="#F0FFFF" stroke="#000000" points="301.7,-816.8 299.7,-852.8 435.8,-852.8 437.8,-816.8 		"/>
		<text transform="matrix(1 0 0 1 307.7016 -837.6329)" font-family="'Times-Roman'" font-size="14">«JavaScript Require»</text>
		<text transform="matrix(1 0 0 1 346.7758 -823.6329)" font-family="'Times-Roman'" font-size="14">express</text>
	</g>
	<g id="edge1">
		<title>n0-&gt;n20</title>
		<path fill="none" stroke="#FF0000" stroke-dasharray="5,2" d="M230.8-774.4h0.9"/>
		<polygon fill="none" stroke="#FF0000" points="229.3,-777.9 299.3,-834.4 229.3,-777.9 		"/>
		<text transform="matrix(1 0 0 1 241.2133 -808.1779)" fill="#FF0000" font-family="'Times-Roman'" font-size="14">«Require»</text>
	</g>
	<g id="node2">
		<title>n1</title>
		<polygon fill="#F0F8FF" stroke="#000000" points="25.6,-266 25.6,-416 201,-416 201,-266 		"/>
		<text transform="matrix(1 0 0 1 77.1069 -400.812)" font-family="'Times-Roman'" font-size="14">«JavaScript»</text>
		<text transform="matrix(1 0 0 1 35.7084 -386.812)" font-family="'Times-Roman'" font-size="14">freewee/scripts/controller.js</text>
		<line fill="none" stroke="#000000" x1="25.6" y1="-380" x2="201" y2="-380"/>
		<text transform="matrix(1 0 0 1 33.5756 -364.812)" font-family="'Times-Roman'" font-size="14">+currentGame : number = 0</text>
		<line fill="none" stroke="#000000" x1="25.6" y1="-358" x2="201" y2="-358"/>
		<text transform="matrix(1 0 0 1 33.5756 -342.812)" font-family="'Times-Roman'" font-size="14">-fadeIn(id)</text>
		<text transform="matrix(1 0 0 1 33.5756 -328.812)" font-family="'Times-Roman'" font-size="14">-fadeOut(id)</text>
		<text transform="matrix(1 0 0 1 33.5756 -314.812)" font-family="'Times-Roman'" font-size="14">-join()</text>
		<text transform="matrix(1 0 0 1 33.5756 -300.812)" font-family="'Times-Roman'" font-size="14">-requestFullScreen(element)</text>
		<text transform="matrix(1 0 0 1 33.5756 -286.812)" font-family="'Times-Roman'" font-size="14">-socket()</text>
		<text transform="matrix(1 0 0 1 33.5756 -272.812)" font-family="'Times-Roman'" font-size="14">-sync(controller, socket)</text>
	</g>
	<g id="node3">
		<title>n2</title>
		<polygon fill="#F0F8FF" stroke="#000000" points="580.4,-722 580.4,-780 728.8,-780 728.8,-722 		"/>
		<text transform="matrix(1 0 0 1 618.4236 -764.8188)" font-family="'Times-Roman'" font-size="14">«JavaScript»</text>
		<text transform="matrix(1 0 0 1 588.3625 -750.8188)" font-family="'Times-Roman'" font-size="14">freewee/scripts/lobby.js</text>
		<line fill="none" stroke="#000000" x1="580" y1="-744" x2="728.5" y2="-744"/>
		<text transform="matrix(1 0 0 1 588.3625 -728.8188)" font-family="'Times-Roman'" font-size="14">+Lobby : object</text>
	</g>
	<g id="node4">
		<title>n3</title>
		<polygon fill="#F0F8FF" stroke="#000000" points="10.8,-464 10.8,-684 217.6,-684 217.6,-464 		"/>
		<text transform="matrix(1 0 0 1 78.0793 -668.8188)" font-family="'Times-Roman'" font-size="14">«JavaScript»</text>
		<text transform="matrix(1 0 0 1 49.5119 -654.8188)" font-family="'Times-Roman'" font-size="14">freewee/scripts/main.js</text>
		<line fill="none" stroke="#000000" x1="10.8" y1="-648" x2="217.6" y2="-648"/>
		<text transform="matrix(1 0 0 1 18.846 -632.8188)" font-family="'Times-Roman'" font-size="14">+game : variable = undefined</text>
		<text transform="matrix(1 0 0 1 18.846 -618.8188)" font-family="'Times-Roman'" font-size="14">+globalButtonCount : number = 0</text>
		<text transform="matrix(1 0 0 1 18.846 -604.8188)" font-family="'Times-Roman'" font-size="14">+globalButtons : array</text>
		<text transform="matrix(1 0 0 1 18.846 -590.8188)" font-family="'Times-Roman'" font-size="14">+globalGamma : array</text>
		<text transform="matrix(1 0 0 1 18.846 -576.8188)" font-family="'Times-Roman'" font-size="14">+globalMic : array</text>
		<text transform="matrix(1 0 0 1 18.846 -562.8188)" font-family="'Times-Roman'" font-size="14">+globalY : array</text>
		<text transform="matrix(1 0 0 1 18.846 -548.8189)" font-family="'Times-Roman'" font-size="14">+gotUpdate : boolean = false</text>
		<text transform="matrix(1 0 0 1 18.846 -534.8189)" font-family="'Times-Roman'" font-size="14">+music : variable = undefined</text>
		<text transform="matrix(1 0 0 1 18.846 -520.8189)" font-family="'Times-Roman'" font-size="14">+numPlayers : number = 0</text>
		<text transform="matrix(1 0 0 1 18.846 -506.8189)" font-family="'Times-Roman'" font-size="14">+players : object</text>
		<line fill="none" stroke="#000000" x1="10.8" y1="-500" x2="217.6" y2="-500"/>
		<text transform="matrix(1 0 0 1 18.846 -484.8189)" font-family="'Times-Roman'" font-size="14">-socket()</text>
		<text transform="matrix(1 0 0 1 18.846 -470.8189)" font-family="'Times-Roman'" font-size="14">-sync(game-screen, socket)</text>
	</g>
	<g id="node6">
		<title>n5</title>
		<polygon fill="#F0F8FF" stroke="#000000" points="575.9,-641.4 575.9,-699.4 756.3,-699.4 756.3,-641.4 		"/>
		<text transform="matrix(1 0 0 1 629.9252 -684.1724)" font-family="'Times-Roman'" font-size="14">«JavaScript»</text>
		<text transform="matrix(1 0 0 1 583.8612 -670.1724)" font-family="'Times-Roman'" font-size="14">freewee/scripts/planet/boot.js</text>
		<line fill="none" stroke="#000000" x1="575.9" y1="-663.4" x2="756.3" y2="-663.4"/>
		<text transform="matrix(1 0 0 1 583.8608 -648.1724)" font-family="'Times-Roman'" font-size="14">+PlanetBoot : object</text>
	</g>
	<g id="node7">
		<title>n6</title>
	</g>
	<g id="node8">
		<title>n7</title>
		<polygon fill="#F0F8FF" stroke="#000000" points="564.1,-154.4 564.1,-212.4 774.1,-212.4 774.1,-154.4 		"/>
		<text transform="matrix(1 0 0 1 632.9252 -197.1723)" font-family="'Times-Roman'" font-size="14">«JavaScript»</text>
		<text transform="matrix(1 0 0 1 572.0922 -183.1724)" font-family="'Times-Roman'" font-size="14">freewee/scripts/planet/gameover.js</text>
		<line fill="none" stroke="#000000" x1="564.1" y1="-176.4" x2="774.1" y2="-176.4"/>
		<text transform="matrix(1 0 0 1 572.0918 -161.1723)" font-family="'Times-Roman'" font-size="14">+PlanetGameOver : object</text>
	</g>
	<g id="node9">
		<title>n8</title>
		<polygon fill="#F0F8FF" stroke="#000000" points="566.4,-495.4 566.4,-567.4 763.8,-567.4 763.8,-495.4 		"/>
		<text transform="matrix(1 0 0 1 628.9772 -552.1724)" font-family="'Times-Roman'" font-size="14">«JavaScript»</text>
		<text transform="matrix(1 0 0 1 579.8063 -538.1724)" font-family="'Times-Roman'" font-size="14">freewee/scripts/planet/menu.js</text>
		<line fill="none" stroke="#000000" x1="566.4" y1="-531.4" x2="763.8" y2="-531.4"/>
		<text transform="matrix(1 0 0 1 574.4269 -516.1724)" font-family="'Times-Roman'" font-size="14">+PlanetMenu : object</text>
		<text transform="matrix(1 0 0 1 574.4269 -502.1724)" font-family="'Times-Roman'" font-size="14">+bgmusic : variable = undefined</text>
	</g>
	<g id="node10">
		<title>n9</title>
		<polygon fill="#F0F8FF" stroke="#000000" points="566.3,-575.4 566.3,-633.4 763.9,-633.4 763.9,-575.4 		"/>
		<text transform="matrix(1 0 0 1 628.9252 -618.1723)" font-family="'Times-Roman'" font-size="14">«JavaScript»</text>
		<text transform="matrix(1 0 0 1 574.3163 -604.1723)" font-family="'Times-Roman'" font-size="14">freewee/scripts/planet/preload.js</text>
		<line fill="none" stroke="#000000" x1="566.3" y1="-597.4" x2="763.9" y2="-597.4"/>
		<text transform="matrix(1 0 0 1 574.3163 -582.1723)" font-family="'Times-Roman'" font-size="14">+PlanetPreload : object</text>
	</g>
	<g id="node11">
		<title>n10</title>
		<polygon fill="#F0F8FF" stroke="#000000" points="834.3,-642.4 834.3,-700.4 1012.5,-700.4 1012.5,-642.4 		"/>
		<text transform="matrix(1 0 0 1 887.2424 -685.1798)" font-family="'Times-Roman'" font-size="14">«JavaScript»</text>
		<text transform="matrix(1 0 0 1 842.344 -671.1798)" font-family="'Times-Roman'" font-size="14">freewee/scripts/snake/boot.js</text>
		<line fill="none" stroke="#000000" x1="834.3" y1="-664.4" x2="1012.5" y2="-664.4"/>
		<text transform="matrix(1 0 0 1 842.3442 -649.1798)" font-family="'Times-Roman'" font-size="14">+SnakeBoot : object</text>
	</g>
	<g id="node12">
		<title>n11</title>
		<polygon fill="#F0F8FF" stroke="#000000" points="798.6,-203.4 798.6,-485.4 1060.6,-485.4 1060.6,-203.4 		"/>
		<text transform="matrix(1 0 0 1 893.4235 -470.1799)" font-family="'Times-Roman'" font-size="14">«JavaScript»</text>
		<text transform="matrix(1 0 0 1 845.8112 -456.1799)" font-family="'Times-Roman'" font-size="14">freewee/scripts/snake/game.js</text>
		<line fill="none" stroke="#000000" x1="798.6" y1="-449.4" x2="1060.6" y2="-449.4"/>
		<text transform="matrix(1 0 0 1 806.6002 -434.1799)" font-family="'Times-Roman'" font-size="14">+SnakeGame : object</text>
		<text transform="matrix(1 0 0 1 806.6002 -420.1799)" font-family="'Times-Roman'" font-size="14">+actionloop : variable = undefined</text>
		<text transform="matrix(1 0 0 1 806.6002 -406.1799)" font-family="'Times-Roman'" font-size="14">+basketGroup : variable = undefined</text>
		<text transform="matrix(1 0 0 1 806.6002 -392.1799)" font-family="'Times-Roman'" font-size="14">+button0 : variable = undefined</text>
		<text transform="matrix(1 0 0 1 806.6002 -378.1799)" font-family="'Times-Roman'" font-size="14">+button1 : variable = undefined</text>
		<text transform="matrix(1 0 0 1 806.6002 -364.1799)" font-family="'Times-Roman'" font-size="14">+button2 : variable = undefined</text>
		<text transform="matrix(1 0 0 1 806.6002 -350.1799)" font-family="'Times-Roman'" font-size="14">+loop : variable = undefined</text>
		<text transform="matrix(1 0 0 1 806.6002 -336.1799)" font-family="'Times-Roman'" font-size="14">+master : number = 0</text>
		<text transform="matrix(1 0 0 1 806.6002 -322.1799)" font-family="'Times-Roman'" font-size="14">+masterSeqGroup : array</text>
		<text transform="matrix(1 0 0 1 806.6002 -308.1799)" font-family="'Times-Roman'" font-size="14">+me : variable = undefined</text>
		<text transform="matrix(1 0 0 1 806.6002 -294.1799)" font-family="'Times-Roman'" font-size="14">+playersSoundGroup : variable = undefined</text>
		<text transform="matrix(1 0 0 1 806.6002 -280.1799)" font-family="'Times-Roman'" font-size="14">+pointTextGroup : variable = undefined</text>
		<text transform="matrix(1 0 0 1 806.6002 -266.1799)" font-family="'Times-Roman'" font-size="14">+points : variable = undefined</text>
		<text transform="matrix(1 0 0 1 806.6002 -252.1799)" font-family="'Times-Roman'" font-size="14">+snakeGroup : variable = undefined</text>
		<text transform="matrix(1 0 0 1 806.6002 -238.1799)" font-family="'Times-Roman'" font-size="14">+sumoGroup : variable = undefined</text>
		<text transform="matrix(1 0 0 1 806.6002 -224.1799)" font-family="'Times-Roman'" font-size="14">+timer : variable = undefined</text>
		<text transform="matrix(1 0 0 1 806.6002 -210.1799)" font-family="'Times-Roman'" font-size="14">+xposition : variable = undefined</text>
	</g>
	<g id="node13">
		<title>n12</title>
		<polygon fill="#F0F8FF" stroke="#000000" points="832.2,-134.9 832.2,-192.9 1039.9,-192.9 1039.9,-134.9 		"/>
		<text transform="matrix(1 0 0 1 899.8721 -177.6921)" font-family="'Times-Roman'" font-size="14">«JavaScript»</text>
		<text transform="matrix(1 0 0 1 840.2047 -163.6921)" font-family="'Times-Roman'" font-size="14">freewee/scripts/snake/gameover.js</text>
		<line fill="none" stroke="#000000" x1="832.2" y1="-156.9" x2="1039.9" y2="-156.9"/>
		<text transform="matrix(1 0 0 1 840.2047 -141.6921)" font-family="'Times-Roman'" font-size="14">+SnakeGameOver : object</text>
	</g>
	<g id="node14">
		<title>n13</title>
		<polygon fill="#F0F8FF" stroke="#000000" points="836.4,-503.4 836.4,-561.4 1020.7,-561.4 1020.7,-503.4 		"/>
		<text transform="matrix(1 0 0 1 892.4235 -546.1799)" font-family="'Times-Roman'" font-size="14">«JavaScript»</text>
		<text transform="matrix(1 0 0 1 844.4181 -532.1799)" font-family="'Times-Roman'" font-size="14">freewee/scripts/snake/menu.js</text>
		<line fill="none" stroke="#000000" x1="836.4" y1="-525.4" x2="1020.7" y2="-525.4"/>
		<text transform="matrix(1 0 0 1 844.4182 -510.1799)" font-family="'Times-Roman'" font-size="14">+SnakeMenu : object</text>
	</g>
	<g id="node15">
		<title>n14</title>
		<polygon fill="#F0F8FF" stroke="#000000" points="829.1,-568.4 829.1,-636.4 1024.3,-636.4 1024.3,-568.4 		"/>
		<text transform="matrix(1 0 0 1 890.5836 -621.1798)" font-family="'Times-Roman'" font-size="14">«JavaScript»</text>
		<text transform="matrix(1 0 0 1 837.1402 -607.1798)" font-family="'Times-Roman'" font-size="14">freewee/scripts/snake/preload.js</text>
		<line fill="none" stroke="#000000" x1="829.1" y1="-600.4" x2="1024.3" y2="-600.4"/>
		<text transform="matrix(1 0 0 1 837.1403 -585.1798)" font-family="'Times-Roman'" font-size="14">+SnakePreload : object</text>
	</g>
	<g id="node16">
		<title>n15</title>
		<polygon fill="#F0F8FF" stroke="#000000" points="327.8,-642.3 327.8,-700.3 504.4,-700.3 504.4,-642.3 		"/>
		<text transform="matrix(1 0 0 1 379.9199 -685.1477)" font-family="'Times-Roman'" font-size="14">«JavaScript»</text>
		<text transform="matrix(1 0 0 1 335.7905 -671.1477)" font-family="'Times-Roman'" font-size="14">freewee/scripts/sumo/boot.js</text>
		<line fill="none" stroke="#000000" x1="327.8" y1="-664.3" x2="504.4" y2="-664.3"/>
		<text transform="matrix(1 0 0 1 335.7906 -649.1477)" font-family="'Times-Roman'" font-size="14">+SumoBoot : object</text>
	</g>
	<g id="node17">
		<title>n16</title>
		<polygon fill="#F0F8FF" stroke="#000000" points="292.6,-133.3 292.6,-457.3 533.2,-457.3 533.2,-133.3 		"/>
		<text transform="matrix(1 0 0 1 376.912 -442.1344)" font-family="'Times-Roman'" font-size="14">«JavaScript»</text>
		<text transform="matrix(1 0 0 1 330.0687 -428.1344)" font-family="'Times-Roman'" font-size="14">freewee/scripts/sumo/game.js</text>
		<line fill="none" stroke="#000000" x1="292.6" y1="-421.3" x2="533.2" y2="-421.3"/>
		<text transform="matrix(1 0 0 1 300.9687 -406.1343)" font-family="'Times-Roman'" font-size="14">+SumoGame : object</text>
		<text transform="matrix(1 0 0 1 300.9687 -392.1343)" font-family="'Times-Roman'" font-size="14">+Y : array</text>
		<text transform="matrix(1 0 0 1 300.9687 -378.1343)" font-family="'Times-Roman'" font-size="14">+bg : variable = undefined</text>
		<text transform="matrix(1 0 0 1 300.9687 -364.1345)" font-family="'Times-Roman'" font-size="14">+breathingSound : variable = undefined</text>
		<text transform="matrix(1 0 0 1 300.9687 -350.1345)" font-family="'Times-Roman'" font-size="14">+cheeringSound : variable = undefined</text>
		<text transform="matrix(1 0 0 1 300.9687 -336.1345)" font-family="'Times-Roman'" font-size="14">+collisionGroup : variable = undefined</text>
		<text transform="matrix(1 0 0 1 300.9687 -322.1344)" font-family="'Times-Roman'" font-size="14">+count : variable = undefined</text>
		<text transform="matrix(1 0 0 1 300.9687 -308.1344)" font-family="'Times-Roman'" font-size="14">+countDown : variable = undefined</text>
		<text transform="matrix(1 0 0 1 300.9687 -294.1344)" font-family="'Times-Roman'" font-size="14">+cursors : variable = undefined</text>
		<text transform="matrix(1 0 0 1 300.9687 -280.1344)" font-family="'Times-Roman'" font-size="14">+lastGamma : array</text>
		<text transform="matrix(1 0 0 1 300.9687 -266.1344)" font-family="'Times-Roman'" font-size="14">+lastY : array</text>
		<text transform="matrix(1 0 0 1 300.9687 -252.1344)" font-family="'Times-Roman'" font-size="14">+loop : variable = undefined</text>
		<text transform="matrix(1 0 0 1 300.9687 -238.1344)" font-family="'Times-Roman'" font-size="14">+placing : variable = undefined</text>
		<text transform="matrix(1 0 0 1 300.9687 -224.1344)" font-family="'Times-Roman'" font-size="14">+sounds : variable = undefined</text>
		<text transform="matrix(1 0 0 1 300.9687 -210.1344)" font-family="'Times-Roman'" font-size="14">+speed : variable = undefined</text>
		<text transform="matrix(1 0 0 1 300.9687 -196.1344)" font-family="'Times-Roman'" font-size="14">+startDecrement : variable = undefined</text>
		<text transform="matrix(1 0 0 1 300.9687 -182.1344)" font-family="'Times-Roman'" font-size="14">+timer : variable = undefined</text>
		<text transform="matrix(1 0 0 1 300.9687 -168.1344)" font-family="'Times-Roman'" font-size="14">+trackGroup : variable = undefined</text>
		<text transform="matrix(1 0 0 1 300.9687 -154.1345)" font-family="'Times-Roman'" font-size="14">+trackposition : variable = undefined</text>
		<text transform="matrix(1 0 0 1 300.9687 -140.1345)" font-family="'Times-Roman'" font-size="14">+winnerPositions : variable = undefined</text>
		<line fill="none" stroke="#000000" x1="292.6" y1="-133.3" x2="533.2" y2="-133.3"/>
	</g>
	<g id="node18">
		<title>n17</title>
		<polygon fill="#F0F8FF" stroke="#000000" points="312,-65.4 312,-123.4 518.1,-123.4 518.1,-65.4 		"/>
		<text transform="matrix(1 0 0 1 378.909 -108.1779)" font-family="'Times-Roman'" font-size="14">«JavaScript»</text>
		<text transform="matrix(1 0 0 1 320.0106 -94.1779)" font-family="'Times-Roman'" font-size="14">freewee/scripts/sumo/gameover.js</text>
		<line fill="none" stroke="#000000" x1="312" y1="-87.4" x2="518.1" y2="-87.4"/>
		<text transform="matrix(1 0 0 1 320.0107 -72.1778)" font-family="'Times-Roman'" font-size="14">+SumoGameOver : object</text>
	</g>
	<g id="node19">
		<title>n18</title>
		<polygon fill="#F0F8FF" stroke="#000000" points="316.9,-463.9 316.9,-563.9 514.3,-563.9 514.3,-463.9 		"/>
		<text transform="matrix(1 0 0 1 379.4016 -548.6621)" font-family="'Times-Roman'" font-size="14">«JavaScript»</text>
		<text transform="matrix(1 0 0 1 332.1652 -534.6621)" font-family="'Times-Roman'" font-size="14">freewee/scripts/sumo/menu.js</text>
		<line fill="none" stroke="#000000" x1="316.9" y1="-527.9" x2="514.3" y2="-527.9"/>
		<text transform="matrix(1 0 0 1 324.8512 -512.6621)" font-family="'Times-Roman'" font-size="14">+SumoMenu : object</text>
		<text transform="matrix(1 0 0 1 324.8512 -498.6621)" font-family="'Times-Roman'" font-size="14">+bgmusic : variable = undefined</text>
		<text transform="matrix(1 0 0 1 324.8512 -484.6621)" font-family="'Times-Roman'" font-size="14">+runtext : variable = undefined</text>
		<text transform="matrix(1 0 0 1 324.8512 -470.6621)" font-family="'Times-Roman'" font-size="14">+sumo : variable = undefined</text>
	</g>
	<g id="node20">
		<title>n19</title>
		<polygon fill="#F0F8FF" stroke="#000000" points="319.2,-574.9 319.2,-632.9 512.9,-632.9 512.9,-574.9 		"/>
		<text transform="matrix(1 0 0 1 379.9132 -617.6583)" font-family="'Times-Roman'" font-size="14">«JavaScript»</text>
		<text transform="matrix(1 0 0 1 327.2389 -603.6583)" font-family="'Times-Roman'" font-size="14">freewee/scripts/sumo/preload.js</text>
		<line fill="none" stroke="#000000" x1="319.2" y1="-596.9" x2="512.9" y2="-596.9"/>
		<text transform="matrix(1 0 0 1 327.2389 -581.6583)" font-family="'Times-Roman'" font-size="14">+SumoPreload : object</text>
	</g>
</g>
<polygon fill="#F0F8FF" stroke="#000000" points="551,647 551,379 791.2,379 791.2,647 "/>
<text transform="matrix(1 0 0 1 634.9252 394.2056)" font-family="'Times-Roman'" font-size="14">«JavaScript»</text>
<text transform="matrix(1 0 0 1 586.1473 408.2056)" font-family="'Times-Roman'" font-size="14">freewee/scripts/planet/game.js</text>
<line fill="none" stroke="#000000" x1="551" y1="415" x2="791.2" y2="415"/>
<text transform="matrix(1 0 0 1 558.9818 430.2056)" enable-background="new    "><tspan x="0" y="0" font-family="'Times-Roman'" font-size="14">+BPunchSound :</tspan><tspan x="95.4" y="0" font-family="'Times-Roman'" font-size="14"> </tspan><tspan x="99.2" y="0" font-family="'Times-Roman'" font-size="14">variable </tspan></text>
<text transform="matrix(1 0 0 1 558.9818 444.2056)" font-family="'Times-Roman'" font-size="14">+PlanetGame : object</text>
<text transform="matrix(1 0 0 1 558.9818 458.2056)" font-family="'Times-Roman'" font-size="14">+RPunchSound : variable </text>
<text transform="matrix(1 0 0 1 558.9818 472.2056)" font-family="'Times-Roman'" font-size="14">+SPunchSound : variable</text>
<text transform="matrix(1 0 0 1 558.9818 486.2056)" font-family="'Times-Roman'" font-size="14">+damageDone : variable</text>
<text transform="matrix(1 0 0 1 558.9818 500.2056)" font-family="'Times-Roman'" font-size="14">+explode : variable</text>
<text transform="matrix(1 0 0 1 558.9818 514.2056)" font-family="'Times-Roman'" font-size="14">+explosionSound : variable </text>
<text transform="matrix(1 0 0 1 558.9818 528.2056)" font-family="'Times-Roman'" font-size="14">+health : variable </text>
<text transform="matrix(1 0 0 1 558.9818 542.2056)" font-family="'Times-Roman'" font-size="14">+healthbar : variable </text>
<text transform="matrix(1 0 0 1 558.9818 556.2056)" font-family="'Times-Roman'" font-size="14">+healthbarfull : variable</text>
<text transform="matrix(1 0 0 1 558.9818 570.2056)" font-family="'Times-Roman'" font-size="14">+maxHP : variable</text>
<text transform="matrix(1 0 0 1 558.9818 584.2056)" font-family="'Times-Roman'" font-size="14">+meteor : variable</text>
<text transform="matrix(1 0 0 1 558.9818 598.2056)" font-family="'Times-Roman'" font-size="14">+meteorHP : variable </text>
<text transform="matrix(1 0 0 1 558.9818 612.2056)" font-family="'Times-Roman'" font-size="14">+meteorLifeText : variable</text>
<text transform="matrix(1 0 0 1 558.9818 626.2056)" font-family="'Times-Roman'" font-size="14">+playBoom : variable </text>
<text transform="matrix(1 0 0 1 558.9818 640.2056)" font-family="'Times-Roman'" font-size="14">+xposition : variable</text>
<rect x="284.6" y="70.7" fill="none" stroke="#FF0000" stroke-miterlimit="10" width="801" height="742.5"/>
<rect x="284.6" y="70.7" fill="none" stroke="#FF0000" stroke-miterlimit="10" width="193" height="27.5"/>
<text transform="matrix(1 0 0 1 325.2133 88.8221)" fill="#FF0000" font-family="'Times-Roman'" font-size="14">Phaser game states</text>
</svg>
